<svg xmlns="http://www.w3.org/2000/svg" xml:space="preserve" width="210mm" height="297mm" version="1.1" style="shape-rendering:geometricPrecision; text-rendering:geometricPrecision; image-rendering:optimizeQuality; fill-rule:evenodd; clip-rule:evenodd" viewBox="0 0 21000 29700" xmlns:xlink="http://www.w3.org/1999/xlink">
  <defs>
    <style type="text/css">
      <![CDATA[
    .fil3 {fill:#4B4B4D;fill-rule:nonzero}
    .fil2 {fill:url(#id8)}
    .fil6 {fill:url(#id9)}
    .fil1 {fill:url(#id10)}
    .fil5 {fill:url(#id11)}
    .fil4 {fill:url(#id12)}
    .fil0 {fill:url(#id13)}
   ]]>
    </style>
    <mask id="id0">
      <linearGradient id="id1" gradientUnits="userSpaceOnUse" x1="-23761.6" y1="-6439.23" x2="-23761.5" y2="-12060.9">
        <stop offset="0" style="stop-opacity:1; stop-color:white" />
        <stop offset="1" style="stop-opacity:0; stop-color:white" />
      </linearGradient>
      <rect style="fill:url(#id1)" x="-31710" y="-9007" width="15642" height="2601" />
    </mask>
    <mask id="id2">
      <linearGradient id="id3" gradientUnits="userSpaceOnUse" x1="-20533.7" y1="-2737" x2="-20533.6" y2="-6959.75">
        <stop offset="0" style="stop-opacity:1; stop-color:white" />
        <stop offset="1" style="stop-opacity:0; stop-color:white" />
      </linearGradient>
      <rect style="fill:url(#id3)" x="-25598" y="-5003" width="9542" height="2774" />
    </mask>
    <mask id="id4">
      <linearGradient id="id5" gradientUnits="userSpaceOnUse" x1="-23761.6" y1="9741.21" x2="-23761.5" y2="4119.52">
        <stop offset="0" style="stop-opacity:1; stop-color:white" />
        <stop offset="1" style="stop-opacity:0; stop-color:white" />
      </linearGradient>
      <rect style="fill:url(#id5)" x="-31710" y="7173" width="15642" height="2601" />
    </mask>
    <mask id="id6">
      <linearGradient id="id7" gradientUnits="userSpaceOnUse" x1="-20533.7" y1="13443.4" x2="-20533.6" y2="9220.69">
        <stop offset="0" style="stop-opacity:1; stop-color:white" />
        <stop offset="1" style="stop-opacity:0; stop-color:white" />
      </linearGradient>
      <rect style="fill:url(#id7)" x="-25598" y="11178" width="9542" height="2774" />
    </mask>
    <linearGradient id="id8" gradientUnits="userSpaceOnUse" x1="-36694.5" y1="-1742.14" x2="-29624.8" y2="-1953.81">
      <stop offset="0" style="stop-opacity:1; stop-color:#70706E" />
      <stop offset="1" style="stop-opacity:1; stop-color:#FEFEFE" />
    </linearGradient>
    <linearGradient id="id9" gradientUnits="userSpaceOnUse" xlink:href="#id8" x1="-36694.5" y1="14438.3" x2="-29624.8" y2="14226.6"></linearGradient>
    <linearGradient id="id10" gradientUnits="userSpaceOnUse" x1="-39483.1" y1="-2716.37" x2="-34485.6" y2="-6750.56">
      <stop offset="0" style="stop-opacity:1; stop-color:#037132" />
      <stop offset="1" style="stop-opacity:1; stop-color:#04D361" />
    </linearGradient>
    <linearGradient id="id11" gradientUnits="userSpaceOnUse" xlink:href="#id10" x1="-39483.1" y1="13464.1" x2="-34485.6" y2="9429.88"></linearGradient>
    <linearGradient id="id12" gradientUnits="userSpaceOnUse" xlink:href="#id10" x1="-35593.8" y1="13845.6" x2="-26892.8" y2="14078.9"></linearGradient>
    <linearGradient id="id13" gradientUnits="userSpaceOnUse" xlink:href="#id10" x1="-35593.8" y1="-2334.81" x2="-26892.8" y2="-2101.58"></linearGradient>
  </defs>
  <g id="Camada_x0020_1">
    <metadata id="CorelCorpID_0Corel-Layer" />
    <g id="_1445284374688">
      <g>
        <path class="fil0" d="M-30006 -2250c-104,-23 -519,-258 -695,-329 -2397,-969 -4493,-649 -6562,898 -245,183 -856,673 -952,832 260,-48 1552,-954 3801,-953 886,1 1731,117 2512,314 766,194 1417,469 2142,683 1722,509 3014,926 4977,922 186,-1 483,7 619,-56 -238,-205 -1115,-691 -1882,-1369 -559,-495 -1102,-1028 -1645,-1637l-1096 -1336c-126,-172 -250,-347 -365,-482 -295,-348 -1915,-775 -2558,-779 36,334 1656,2989 1704,3292z" />
        <path class="fil1" d="M-39457 -757c76,-37 32,-6 84,-72 14,-18 40,-73 50,-92 42,-87 51,-108 92,-188 942,-1850 2312,-4101 4713,-4148 -8,-189 -1490,-3017 -1781,-3577 -128,-247 -487,-1030 -620,-1178 -1215,30 -1971,1010 -2476,1928 -170,308 -82,1023 -81,1421 6,1953 -32,3959 19,5906z" />
        <path class="fil2" d="M-33538 -4907c-1599,-145 -2601,488 -3370,1253 -374,371 -710,786 -1038,1291 -155,238 -800,1270 -834,1504 240,-273 1079,-1013 1384,-1237 1109,-817 2343,-1447 3833,-1513 998,-45 1474,147 2339,352 -110,-302 -2289,-4689 -2358,-4767 -385,-428 -1031,-659 -1833,-579 48,297 1785,3374 1877,3696z" />
      </g>
      <path class="fil3" style="mask:url(#id0)" d="M-31710 -6439l0 -2332 973 0c149,0 274,22 376,67 102,44 180,110 232,198 52,88 78,195 78,321 0,127 -35,235 -105,323 -70,89 -167,150 -291,184l0 -67c104,22 195,62 273,118 78,57 138,127 181,212 44,84 65,181 65,290 0,111 -17,209 -51,294 -35,86 -86,157 -153,215 -68,58 -150,102 -245,132 -96,30 -205,45 -327,45l-1006 0zm360 -347l626 0c91,0 168,-13 232,-40 63,-26 112,-66 146,-118 35,-52 52,-115 52,-188 0,-69 -18,-128 -55,-177 -37,-48 -88,-86 -155,-111 -67,-26 -145,-39 -236,-39l-610 0 0 673zm0 -1019l593 0c67,0 126,-13 178,-40 52,-27 93,-63 123,-110 30,-46 45,-100 45,-160 0,-100 -33,-176 -100,-230 -66,-53 -162,-79 -286,-79l-553 0 0 619zm1879 1366l0 -1749 343 0 0 1749 -343 0zm166 -2135c-73,0 -130,-19 -170,-57 -40,-38 -60,-91 -60,-160 0,-64 21,-116 62,-156 41,-40 97,-60 168,-60 74,0 130,18 170,56 40,38 60,91 60,160 0,65 -20,117 -62,157 -41,40 -97,60 -168,60zm1622 2168c-75,0 -150,-12 -224,-37 -75,-24 -143,-57 -204,-98 -61,-41 -112,-86 -153,-136 -41,-50 -68,-101 -81,-152l86 -47 0 427 -343 0 0 -2455 343 0 0 1116 -53 -30c11,-51 35,-101 73,-148 38,-48 86,-92 145,-130 59,-39 123,-70 192,-94 68,-23 138,-35 209,-35 158,0 298,39 420,117 122,78 219,185 290,321 71,137 107,293 107,468 0,176 -35,332 -105,470 -70,138 -166,246 -289,325 -122,79 -259,118 -413,118zm-56 -313c102,0 193,-26 273,-78 80,-52 143,-124 190,-213 46,-90 70,-193 70,-309 0,-113 -23,-214 -69,-304 -45,-90 -108,-161 -188,-212 -80,-51 -172,-77 -276,-77 -105,0 -197,26 -277,77 -80,51 -143,122 -190,212 -46,90 -69,191 -69,304 0,116 23,219 69,309 47,89 110,161 190,213 80,52 172,78 277,78zm1242 280l0 -2465 343 0 0 2465 -343 0zm886 0l0 -1749 343 0 0 1749 -343 0zm167 -2135c-73,0 -130,-19 -170,-57 -40,-38 -60,-91 -60,-160 0,-64 21,-116 62,-156 41,-40 97,-60 168,-60 73,0 130,18 170,56 40,38 60,91 60,160 0,65 -21,117 -62,157 -41,40 -97,60 -168,60zm1489 2168c-171,0 -324,-39 -458,-118 -135,-79 -241,-187 -318,-323 -78,-137 -117,-293 -117,-468 0,-176 39,-332 117,-468 77,-137 183,-245 318,-323 134,-79 287,-119 458,-119 169,0 320,40 454,119 135,78 241,186 319,323 77,136 116,292 116,468 0,175 -39,331 -116,468 -78,136 -184,244 -319,323 -134,79 -285,118 -454,118zm0 -313c104,0 197,-26 280,-78 82,-52 146,-124 193,-213 46,-90 69,-192 66,-305 3,-116 -20,-218 -66,-308 -47,-90 -111,-161 -193,-212 -83,-51 -176,-77 -280,-77 -105,0 -198,27 -282,79 -83,52 -148,123 -195,213 -46,90 -68,191 -66,305 -2,113 20,215 66,305 47,89 112,161 195,213 84,52 177,78 282,78zm1479 280l0 -2195 343 0 0 2195 -343 0zm-363 -1416l0 -333 1112 0 0 333 -1112 0zm2225 1449c-180,0 -340,-38 -478,-115 -139,-76 -248,-181 -327,-315 -79,-133 -118,-286 -118,-459 0,-138 22,-263 67,-377 44,-113 106,-211 185,-294 78,-84 173,-148 283,-194 110,-45 229,-68 358,-68 113,0 218,22 316,65 98,43 183,103 255,178 72,76 128,165 167,268 38,104 57,216 54,338l-3 147 -1429 0 -76 -273 1209 0 -50 56 0 -79c-7,-74 -31,-139 -74,-197 -42,-58 -95,-103 -159,-137 -65,-33 -135,-50 -210,-50 -120,0 -221,23 -303,69 -83,45 -145,112 -187,200 -42,87 -63,196 -63,324 0,123 25,229 76,318 51,90 124,160 217,209 93,49 201,73 323,73 87,0 167,-14 241,-43 75,-29 155,-81 242,-157l173 243c-53,54 -118,100 -195,140 -76,40 -157,72 -243,95 -85,23 -169,35 -251,35zm1878 0c-162,0 -307,-40 -434,-120 -128,-80 -229,-189 -303,-326 -75,-138 -112,-292 -112,-463 0,-171 37,-326 112,-463 74,-138 175,-247 303,-327 127,-80 272,-120 434,-120 156,0 297,32 425,95 128,64 225,150 292,258l-190 234c-36,-51 -81,-98 -137,-140 -55,-42 -114,-76 -176,-100 -63,-25 -123,-37 -180,-37 -107,0 -202,26 -285,78 -83,53 -149,124 -198,215 -49,91 -74,193 -74,307 0,113 26,215 77,305 51,89 119,161 203,214 85,54 178,80 280,80 60,0 118,-10 175,-30 56,-20 111,-50 165,-90 53,-40 103,-88 150,-146l190 233c-72,100 -173,182 -305,246 -132,65 -270,97 -412,97zm1712 0c-144,0 -275,-40 -394,-120 -119,-80 -214,-189 -285,-326 -71,-138 -107,-293 -107,-467 0,-175 36,-331 109,-468 72,-136 169,-243 293,-321 123,-78 261,-117 414,-117 91,0 175,14 250,40 76,27 142,64 198,112 57,48 104,103 140,165 37,62 60,129 69,200l-77 -27 0 -453 346 0 0 1749 -346 0 0 -417 80 -23c-13,60 -41,118 -82,175 -41,57 -93,107 -156,152 -63,44 -133,79 -210,106 -77,27 -157,40 -242,40zm90 -316c105,0 197,-26 277,-77 80,-51 143,-122 188,-211 46,-90 68,-193 68,-309 0,-113 -22,-214 -68,-303 -45,-89 -108,-158 -188,-210 -80,-51 -172,-76 -277,-76 -102,0 -192,25 -271,76 -79,52 -141,121 -187,210 -45,89 -68,190 -68,303 0,116 23,219 68,309 46,89 108,160 187,211 79,51 169,77 271,77z" />
      <path class="fil3" style="mask:url(#id2)" d="M-24581 -2229c-146,0 -281,-19 -406,-58 -125,-38 -238,-97 -339,-175 -101,-78 -192,-175 -272,-291l286 -327c125,179 246,304 362,373 115,70 253,104 412,104 97,0 186,-15 266,-46 79,-31 142,-73 188,-127 47,-54 70,-116 70,-185 0,-46 -8,-90 -23,-131 -16,-41 -40,-78 -72,-112 -32,-33 -73,-64 -123,-92 -50,-28 -108,-53 -175,-75 -67,-22 -144,-41 -231,-56 -139,-28 -260,-66 -362,-112 -103,-46 -189,-104 -259,-173 -69,-69 -120,-148 -154,-237 -33,-89 -50,-188 -50,-299 0,-107 24,-208 72,-300 47,-92 113,-173 196,-241 83,-68 182,-120 295,-158 113,-37 235,-56 366,-56 138,0 265,18 381,54 116,36 218,90 308,160 90,71 165,158 224,260l-293 289c-52,-85 -109,-156 -173,-214 -65,-57 -135,-101 -212,-131 -77,-29 -160,-44 -247,-44 -100,0 -187,16 -262,46 -74,31 -133,74 -175,129 -42,56 -64,120 -64,195 0,54 11,103 31,148 21,45 52,85 95,120 42,34 99,65 171,92 72,27 158,51 258,71 141,31 267,70 378,118 110,47 204,103 281,167 77,65 135,137 175,216 40,80 60,166 60,258 0,172 -40,321 -120,447 -79,126 -192,223 -339,291 -146,68 -321,102 -524,102zm1572 -39l0 -2696 1699 0 0 401 -1283 0 0 1895 1283 0 0 400 -1699 0zm189 -1182l0 -401 1298 0 0 401 -1298 0zm1895 1182l1044 -2696 424 0 1036 2696 -443 0 -616 -1625c-8,-18 -23,-62 -45,-131 -21,-69 -47,-146 -75,-231 -28,-85 -54,-163 -77,-233 -23,-71 -38,-116 -46,-137l89 -4c-16,44 -34,99 -56,166 -22,67 -45,137 -70,212 -24,74 -48,144 -71,210 -23,65 -42,120 -58,163l-612 1610 -424 0zm462 -670l154 -400 1225 0 178 400 -1557 0zm2516 670l0 -2696 1098 0c146,0 279,37 398,110 120,73 215,172 287,298 72,126 108,266 108,420 0,154 -36,294 -108,420 -72,126 -167,227 -287,302 -119,76 -252,114 -398,114l-682 0 0 1032 -416 0zm416 -1433l674 0c69,0 132,-19 189,-59 56,-40 102,-93 136,-158 35,-66 52,-138 52,-218 0,-79 -17,-151 -52,-216 -34,-64 -80,-115 -136,-154 -57,-38 -120,-57 -189,-57l-674 0 0 862z" />
    </g>
    <g id="_1445284370816">
      <g>
        <path class="fil4" d="M-30006 13930c-104,-22 -519,-258 -695,-329 -2397,-968 -4493,-648 -6562,898 -245,183 -856,673 -952,832 260,-47 1552,-953 3801,-952 886,0 1731,117 2512,314 766,193 1417,469 2142,683 1722,508 3014,926 4977,921 186,0 483,7 619,-56 -238,-205 -1115,-691 -1882,-1369 -559,-494 -1102,-1028 -1645,-1636l-1096 -1336c-126,-173 -250,-348 -365,-483 -295,-347 -1915,-775 -2558,-779 36,335 1656,2990 1704,3292z" />
        <path class="fil5" d="M-39457 15423c76,-37 32,-6 84,-72 14,-18 40,-73 50,-92 42,-87 51,-108 92,-188 942,-1850 2312,-4100 4713,-4148 -8,-188 -1490,-3016 -1781,-3577 -128,-247 -487,-1029 -620,-1178 -1215,30 -1971,1011 -2476,1928 -170,309 -82,1023 -81,1421 6,1954 -32,3959 19,5906z" />
        <path class="fil6" d="M-33538 11274c-1599,-146 -2601,488 -3370,1252 -374,372 -710,787 -1038,1291 -155,239 -800,1271 -834,1504 240,-273 1079,-1012 1384,-1237 1109,-817 2343,-1447 3833,-1513 998,-44 1474,147 2339,352 -110,-302 -2289,-4689 -2358,-4766 -385,-429 -1031,-659 -1833,-579 48,296 1785,3373 1877,3696z" />
      </g>
      <path class="fil3" style="mask:url(#id4)" d="M-31710 9741l0 -2331 973 0c149,0 274,22 376,66 102,45 180,111 232,198 52,88 78,195 78,322 0,126 -35,234 -105,323 -70,89 -167,150 -291,183l0 -67c104,23 195,62 273,119 78,56 138,127 181,211 44,85 65,181 65,290 0,111 -17,209 -51,295 -35,85 -86,157 -153,215 -68,57 -150,101 -245,131 -96,30 -205,45 -327,45l-1006 0zm360 -346l626 0c91,0 168,-14 232,-40 63,-27 112,-66 146,-118 35,-53 52,-115 52,-189 0,-68 -18,-127 -55,-176 -37,-49 -88,-86 -155,-112 -67,-25 -145,-38 -236,-38l-610 0 0 673zm0 -1019l593 0c67,0 126,-14 178,-40 52,-27 93,-64 123,-110 30,-47 45,-100 45,-160 0,-100 -33,-177 -100,-230 -66,-53 -162,-80 -286,-80l-553 0 0 620zm1879 1365l0 -1749 343 0 0 1749 -343 0zm166 -2135c-73,0 -130,-19 -170,-57 -40,-37 -60,-91 -60,-159 0,-65 21,-117 62,-157 41,-40 97,-60 168,-60 74,0 130,19 170,57 40,37 60,91 60,160 0,64 -20,116 -62,156 -41,40 -97,60 -168,60zm1622 2169c-75,0 -150,-13 -224,-37 -75,-25 -143,-57 -204,-98 -61,-41 -112,-87 -153,-137 -41,-50 -68,-100 -81,-152l86 -46 0 426 -343 0 0 -2455 343 0 0 1116 -53 -30c11,-51 35,-100 73,-148 38,-48 86,-91 145,-130 59,-39 123,-70 192,-93 68,-24 138,-35 209,-35 158,0 298,39 420,116 122,78 219,185 290,322 71,136 107,292 107,468 0,175 -35,332 -105,470 -70,137 -166,245 -289,324 -122,79 -259,119 -413,119zm-56 -314c102,0 193,-26 273,-78 80,-52 143,-123 190,-213 46,-90 70,-193 70,-308 0,-113 -23,-215 -69,-305 -45,-90 -108,-160 -188,-211 -80,-52 -172,-77 -276,-77 -105,0 -197,25 -277,77 -80,51 -143,121 -190,211 -46,90 -69,192 -69,305 0,115 23,218 69,308 47,90 110,161 190,213 80,52 172,78 277,78zm1242 280l0 -2465 343 0 0 2465 -343 0zm886 0l0 -1749 343 0 0 1749 -343 0zm167 -2135c-73,0 -130,-19 -170,-57 -40,-37 -60,-91 -60,-159 0,-65 21,-117 62,-157 41,-40 97,-60 168,-60 73,0 130,19 170,57 40,37 60,91 60,160 0,64 -21,116 -62,156 -41,40 -97,60 -168,60zm1489 2169c-171,0 -324,-40 -458,-119 -135,-79 -241,-186 -318,-323 -78,-136 -117,-292 -117,-468 0,-175 39,-331 117,-468 77,-136 183,-244 318,-323 134,-79 287,-118 458,-118 169,0 320,39 454,118 135,79 241,187 319,323 77,137 116,293 116,468 0,176 -39,332 -116,468 -78,137 -184,244 -319,323 -134,79 -285,119 -454,119zm0 -314c104,0 197,-26 280,-78 82,-52 146,-123 193,-213 46,-90 69,-192 66,-305 3,-115 -20,-218 -66,-308 -47,-90 -111,-160 -193,-211 -83,-52 -176,-77 -280,-77 -105,0 -198,26 -282,78 -83,52 -148,123 -195,213 -46,90 -68,192 -66,305 -2,113 20,215 66,305 47,90 112,161 195,213 84,52 177,78 282,78zm1479 280l0 -2195 343 0 0 2195 -343 0zm-363 -1415l0 -334 1112 0 0 334 -1112 0zm2225 1449c-180,0 -340,-39 -478,-115 -139,-77 -248,-182 -327,-315 -79,-133 -118,-287 -118,-460 0,-138 22,-263 67,-376 44,-113 106,-212 185,-295 78,-83 173,-148 283,-193 110,-46 229,-69 358,-69 113,0 218,22 316,65 98,44 183,103 255,179 72,75 128,165 167,268 38,103 57,216 54,338l-3 146 -1429 0 -76 -273 1209 0 -50 57 0 -80c-7,-73 -31,-139 -74,-197 -42,-57 -95,-103 -159,-136 -65,-33 -135,-50 -210,-50 -120,0 -221,23 -303,68 -83,46 -145,112 -187,200 -42,88 -63,196 -63,325 0,122 25,228 76,318 51,90 124,159 217,208 93,49 201,73 323,73 87,0 167,-14 241,-43 75,-29 155,-81 242,-156l173 243c-53,53 -118,100 -195,140 -76,40 -157,71 -243,95 -85,23 -169,35 -251,35zm1878 0c-162,0 -307,-40 -434,-120 -128,-80 -229,-189 -303,-327 -75,-138 -112,-292 -112,-463 0,-171 37,-325 112,-463 74,-138 175,-246 303,-326 127,-80 272,-120 434,-120 156,0 297,31 425,95 128,63 225,149 292,258l-190 233c-36,-51 -81,-98 -137,-140 -55,-42 -114,-75 -176,-100 -63,-24 -123,-36 -180,-36 -107,0 -202,26 -285,78 -83,52 -149,124 -198,215 -49,91 -74,193 -74,306 0,113 26,215 77,305 51,90 119,162 203,215 85,53 178,80 280,80 60,0 118,-10 175,-30 56,-20 111,-50 165,-90 53,-40 103,-89 150,-147l190 233c-72,100 -173,183 -305,247 -132,64 -270,97 -412,97zm1712 0c-144,0 -275,-40 -394,-120 -119,-80 -214,-189 -285,-327 -71,-138 -107,-293 -107,-466 0,-176 36,-332 109,-468 72,-137 169,-244 293,-322 123,-77 261,-116 414,-116 91,0 175,13 250,40 76,26 142,64 198,111 57,48 104,103 140,165 37,62 60,129 69,200l-77 -27 0 -453 346 0 0 1749 -346 0 0 -416 80 -23c-13,59 -41,118 -82,174 -41,57 -93,108 -156,152 -63,44 -133,80 -210,107 -77,26 -157,40 -242,40zm90 -317c105,0 197,-25 277,-77 80,-51 143,-121 188,-211 46,-90 68,-193 68,-308 0,-113 -22,-214 -68,-303 -45,-89 -108,-159 -188,-210 -80,-51 -172,-77 -277,-77 -102,0 -192,26 -271,77 -79,51 -141,121 -187,210 -45,89 -68,190 -68,303 0,115 23,218 68,308 46,90 108,160 187,211 79,52 169,77 271,77z" />
      <path class="fil3" style="mask:url(#id6)" d="M-24581 13951c-146,0 -281,-19 -406,-57 -125,-39 -238,-97 -339,-176 -101,-78 -192,-175 -272,-290l286 -328c125,180 246,304 362,374 115,69 253,104 412,104 97,0 186,-16 266,-46 79,-31 142,-74 188,-128 47,-53 70,-115 70,-184 0,-47 -8,-90 -23,-131 -16,-42 -40,-79 -72,-112 -32,-34 -73,-64 -123,-93 -50,-28 -108,-53 -175,-75 -67,-22 -144,-40 -231,-56 -139,-28 -260,-65 -362,-111 -103,-47 -189,-104 -259,-174 -69,-69 -120,-148 -154,-237 -33,-88 -50,-188 -50,-298 0,-108 24,-208 72,-301 47,-92 113,-172 196,-240 83,-68 182,-121 295,-158 113,-37 235,-56 366,-56 138,0 265,18 381,54 116,36 218,89 308,160 90,70 165,157 224,260l-293 289c-52,-85 -109,-156 -173,-214 -65,-58 -135,-102 -212,-131 -77,-30 -160,-44 -247,-44 -100,0 -187,15 -262,46 -74,31 -133,74 -175,129 -42,55 -64,120 -64,194 0,54 11,104 31,149 21,45 52,84 95,119 42,35 99,66 171,93 72,27 158,50 258,71 141,31 267,70 378,117 110,48 204,104 281,168 77,64 135,136 175,216 40,79 60,165 60,258 0,172 -40,321 -120,447 -79,125 -192,222 -339,290 -146,68 -321,102 -524,102zm1572 -38l0 -2697 1699 0 0 401 -1283 0 0 1895 1283 0 0 401 -1699 0zm189 -1183l0 -400 1298 0 0 400 -1298 0zm1895 1183l1044 -2697 424 0 1036 2697 -443 0 -616 -1626c-8,-18 -23,-61 -45,-131 -21,-69 -47,-146 -75,-231 -28,-85 -54,-162 -77,-233 -23,-70 -38,-116 -46,-137l89 -3c-16,43 -34,98 -56,165 -22,67 -45,138 -70,212 -24,75 -48,145 -71,210 -23,66 -42,120 -58,164l-612 1610 -424 0zm462 -670l154 -401 1225 0 178 401 -1557 0zm2516 670l0 -2697 1098 0c146,0 279,37 398,110 120,73 215,173 287,299 72,126 108,266 108,420 0,154 -36,294 -108,420 -72,125 -167,226 -287,302 -119,76 -252,114 -398,114l-682 0 0 1032 -416 0zm416 -1433l674 0c69,0 132,-20 189,-60 56,-40 102,-92 136,-158 35,-65 52,-138 52,-217 0,-80 -17,-152 -52,-216 -34,-64 -80,-116 -136,-154 -57,-39 -120,-58 -189,-58l-674 0 0 863z" />
    </g>
  </g>
</svg>