<?xml version="1.0" encoding="UTF-8"?>
<!DOCTYPE svg PUBLIC "-//W3C//DTD SVG 1.1//EN" "http://www.w3.org/Graphics/SVG/1.1/DTD/svg11.dtd">
<!-- Creator: CorelDRAW -->
<svg xmlns="http://www.w3.org/2000/svg" xml:space="preserve" width="134.1mm" height="20.7536mm" version="1.1" style="shape-rendering:geometricPrecision; text-rendering:geometricPrecision; image-rendering:optimizeQuality; fill-rule:evenodd; clip-rule:evenodd"
viewBox="0 0 3745.28 579.63"
 xmlns:xlink="http://www.w3.org/1999/xlink"
 xmlns:xodm="http://www.corel.com/coreldraw/odm/2003">
 <defs>
  <style type="text/css">
   <![CDATA[
    .str0 {stroke:#00063E;stroke-width:27.93;stroke-miterlimit:22.9256}
    .fil0 {fill:none}
    .fil21 {fill:url(#id0)}
    .fil16 {fill:url(#id1)}
    .fil8 {fill:url(#id2)}
    .fil4 {fill:url(#id3)}
    .fil11 {fill:url(#id4)}
    .fil19 {fill:url(#id5)}
    .fil22 {fill:url(#id6)}
    .fil17 {fill:url(#id7)}
    .fil12 {fill:url(#id8)}
    .fil23 {fill:url(#id9)}
    .fil9 {fill:url(#id10)}
    .fil20 {fill:url(#id11)}
    .fil2 {fill:url(#id12)}
    .fil10 {fill:url(#id13)}
    .fil18 {fill:url(#id14)}
    .fil5 {fill:url(#id15)}
    .fil14 {fill:url(#id16)}
    .fil15 {fill:url(#id17)}
    .fil3 {fill:url(#id18)}
    .fil24 {fill:url(#id19)}
    .fil6 {fill:url(#id20)}
    .fil13 {fill:url(#id21)}
    .fil7 {fill:url(#id22)}
    .fil1 {fill:url(#id23);fill-rule:nonzero}
   ]]>
  </style>
  <linearGradient id="id0" gradientUnits="userSpaceOnUse" x1="1881.41" y1="553.44" x2="1881.42" y2="0">
   <stop offset="0" style="stop-opacity:1; stop-color:#00063E"/>
   <stop offset="1" style="stop-opacity:1; stop-color:black"/>
  </linearGradient>
  <linearGradient id="id1" gradientUnits="userSpaceOnUse" xlink:href="#id0" x1="1881.42" y1="553.45" x2="1881.43" y2="-0">
  </linearGradient>
  <linearGradient id="id2" gradientUnits="userSpaceOnUse" xlink:href="#id0" x1="1881.41" y1="553.45" x2="1881.43" y2="0">
  </linearGradient>
  <linearGradient id="id3" gradientUnits="userSpaceOnUse" xlink:href="#id0" x1="1881.42" y1="553.46" x2="1881.43" y2="-0.02">
  </linearGradient>
  <linearGradient id="id4" gradientUnits="userSpaceOnUse" xlink:href="#id0" x1="1881.41" y1="553.45" x2="1881.42" y2="0">
  </linearGradient>
  <linearGradient id="id5" gradientUnits="userSpaceOnUse" xlink:href="#id0" x1="1881.41" y1="553.45" x2="1881.41" y2="-0">
  </linearGradient>
  <linearGradient id="id6" gradientUnits="userSpaceOnUse" xlink:href="#id0" x1="1881.43" y1="553.44" x2="1881.44" y2="0">
  </linearGradient>
  <linearGradient id="id7" gradientUnits="userSpaceOnUse" xlink:href="#id0" x1="1881.41" y1="553.44" x2="1881.43" y2="0.01">
  </linearGradient>
  <linearGradient id="id8" gradientUnits="userSpaceOnUse" xlink:href="#id0" x1="1881.44" y1="553.44" x2="1881.45" y2="0">
  </linearGradient>
  <linearGradient id="id9" gradientUnits="userSpaceOnUse" xlink:href="#id0" x1="1881.43" y1="553.44" x2="1881.44" y2="0">
  </linearGradient>
  <linearGradient id="id10" gradientUnits="userSpaceOnUse" xlink:href="#id0" x1="1881.43" y1="553.45" x2="1881.44" y2="-0.01">
  </linearGradient>
  <linearGradient id="id11" gradientUnits="userSpaceOnUse" xlink:href="#id0" x1="1881.43" y1="553.44" x2="1881.43" y2="0">
  </linearGradient>
  <linearGradient id="id12" gradientUnits="userSpaceOnUse" xlink:href="#id0" x1="1881.41" y1="553.44" x2="1881.43" y2="0">
  </linearGradient>
  <linearGradient id="id13" gradientUnits="userSpaceOnUse" xlink:href="#id0" x1="1881.42" y1="553.45" x2="1881.43" y2="0">
  </linearGradient>
  <linearGradient id="id14" gradientUnits="userSpaceOnUse" xlink:href="#id0" x1="1881.41" y1="553.45" x2="1881.43" y2="-0.01">
  </linearGradient>
  <linearGradient id="id15" gradientUnits="userSpaceOnUse" xlink:href="#id0" x1="1881.41" y1="553.45" x2="1881.42" y2="0">
  </linearGradient>
  <linearGradient id="id16" gradientUnits="userSpaceOnUse" xlink:href="#id0" x1="1881.42" y1="553.45" x2="1881.43" y2="0">
  </linearGradient>
  <linearGradient id="id17" gradientUnits="userSpaceOnUse" xlink:href="#id0" x1="1881.41" y1="553.45" x2="1881.43" y2="-0">
  </linearGradient>
  <linearGradient id="id18" gradientUnits="userSpaceOnUse" xlink:href="#id0" x1="1881.42" y1="553.45" x2="1881.43" y2="0">
  </linearGradient>
  <linearGradient id="id19" gradientUnits="userSpaceOnUse" xlink:href="#id0" x1="1881.41" y1="553.43" x2="1881.43" y2="0.01">
  </linearGradient>
  <linearGradient id="id20" gradientUnits="userSpaceOnUse" xlink:href="#id0" x1="1881.42" y1="553.44" x2="1881.43" y2="0.01">
  </linearGradient>
  <linearGradient id="id21" gradientUnits="userSpaceOnUse" xlink:href="#id0" x1="1881.41" y1="553.45" x2="1881.42" y2="-0.01">
  </linearGradient>
  <linearGradient id="id22" gradientUnits="userSpaceOnUse" xlink:href="#id0" x1="1881.42" y1="553.45" x2="1881.43" y2="-0">
  </linearGradient>
  <linearGradient id="id23" gradientUnits="objectBoundingBox" xlink:href="#id0" x1="120.184%" y1="114.425%" x2="120.185%" y2="0%">
  </linearGradient>
 </defs>
 <g id="Camada_x0020_1">
  <metadata id="CorelCorpID_0Corel-Layer"/>
  <line class="fil0 str0" x1="1872.64" y1="0" x2="1872.64" y2= "579.63" />
  <g id="_2192735984112">
   <path class="fil1" d="M165.82 494.42c-32.23,0 -63.24,-4.03 -93.03,-12.08 -29.79,-8.06 -54.06,-18.46 -72.79,-31.2l36.54 -82.07c17.61,11.24 37.94,20.52 60.99,27.82 23.05,7.31 46,10.96 68.86,10.96 15.37,0 27.73,-1.41 37.1,-4.22 9.37,-2.81 16.21,-6.56 20.52,-11.24 4.31,-4.68 6.46,-10.21 6.46,-16.58 0,-8.99 -4.12,-16.12 -12.37,-21.36 -8.24,-5.25 -18.92,-9.56 -32.04,-12.93 -13.12,-3.37 -27.64,-6.74 -43.56,-10.12 -15.93,-3.37 -31.85,-7.68 -47.78,-12.93 -15.93,-5.25 -30.45,-12.08 -43.56,-20.52 -13.12,-8.43 -23.8,-19.49 -32.04,-33.16 -8.24,-13.68 -12.36,-31.01 -12.36,-52 0,-23.61 6.46,-44.97 19.39,-64.08 12.93,-19.11 32.32,-34.48 58.18,-46.09 25.86,-11.62 58.08,-17.42 96.68,-17.42 25.86,0 51.24,2.9 76.17,8.71 24.92,5.81 47.12,14.33 66.61,25.57l-34.29 82.63c-18.73,-10.12 -37.29,-17.7 -55.65,-22.76 -18.36,-5.06 -36.16,-7.59 -53.4,-7.59 -15.36,0 -27.73,1.59 -37.1,4.78 -9.37,3.19 -16.12,7.4 -20.24,12.65 -4.12,5.25 -6.18,11.24 -6.18,17.99 0,8.62 4.03,15.46 12.08,20.52 8.05,5.06 18.73,9.18 32.04,12.36 13.31,3.19 27.92,6.47 43.85,9.84 15.93,3.37 31.85,7.59 47.78,12.65 15.93,5.06 30.45,11.8 43.56,20.23 13.12,8.43 23.7,19.49 31.76,33.17 8.05,13.68 12.08,30.82 12.08,51.43 0,22.86 -6.47,43.94 -19.39,63.24 -12.93,19.3 -32.23,34.75 -57.89,46.37 -25.67,11.62 -57.99,17.42 -96.96,17.42z"/>
   <path id="_1" class="fil1" d="M492.96 245.97l183.24 -0.56 -0.56 82.63 -182.12 0.56 -0.56 -82.63zm7.31 155.14l206.85 -0.56 -0.56 86 -315.34 0 0.56 -393.47 308.03 0 -1.13 85.44 -197.3 0.56 -1.12 222.03z"/>
   <path id="_2" class="fil1" d="M721.73 486.55l173.69 -393.47 109.61 0 174.25 393.47 -115.79 0 -136.03 -338.95 43.84 0 -136.03 338.95 -113.55 0zm94.99 -76.44l28.67 -82.07 192.24 0 28.67 82.07 -249.57 0z"/>
   <path id="_3" class="fil1" d="M1210.76 486.55l0 -393.47 179.87 0c35.98,0 66.98,5.81 93.03,17.42 26.04,11.62 46.19,28.39 60.42,50.31 14.24,21.92 21.36,47.87 21.36,77.85 0,29.6 -7.12,55.27 -21.36,77.01 -14.24,21.73 -34.38,38.5 -60.42,50.31 -26.04,11.8 -57.05,17.7 -93.03,17.7l-118.04 0 49.46 -48.34 0 151.2 -111.3 0zm111.3 -139.4l-49.46 -51.15 111.29 0c23.23,0 40.57,-5.06 52,-15.18 11.43,-10.12 17.14,-24.17 17.14,-42.16 0,-18.36 -5.71,-32.6 -17.14,-42.72 -11.43,-10.12 -28.76,-15.18 -52,-15.18l-111.29 0 49.46 -51.15 0 217.53z"/>
   <g>
    <path class="fil2" d="M3191.3 290.09c30.92,-0.05 165.62,3.94 184.79,-1.25l-0.03 -17.35 -0.01 -37.17c-0.08,-10.24 -2.66,-26.67 1.67,-35.05 -3.33,-9.31 -1.23,-25.71 -1.66,-37.3l0.09 -36.53 -184.24 -0.18 -0.61 164.83zm76.55 -102.03l-48.27 0.11c0.37,0.52 0.96,0.59 1.17,1.39l36.89 26.05 -14.68 41.31c8.7,-4.3 32.67,-18.94 39.63,-25.14 14.35,6.19 27.01,18.38 41.47,24.99l-14.62 -41.09c9.29,-8.66 31.07,-18.45 38.21,-27.44l-47.71 -0.18c-3.56,-6.52 -5.37,-13.12 -8.04,-20.29l-9.37 -21.3 -14.7 41.6z"/>
    <polygon class="fil3" points="3191.24,454.36 3745.25,454.35 3745.25,417.24 3191.25,417.23 "/>
    <polygon class="fil4" points="3191.25,380.74 3744.62,381.49 3745.18,344.37 3191.46,344.38 "/>
    <path class="fil5" d="M3191.3 290.09l-0.08 18.06 554.02 -0 0.01 -36.65 -369.19 0 0.03 17.35c-19.17,5.19 -153.87,1.2 -184.79,1.25z"/>
    <path class="fil6" d="M3376.06 234.33l369.21 1.01 0.01 -37.17c-23.15,0.01 -354.32,-2.1 -367.55,1.1 -4.33,8.38 -1.75,24.81 -1.67,35.05z"/>
    <polygon class="fil7" points="3376.07,161.98 3745.25,161.93 3745.07,125.35 3376.16,125.45 "/>
    <path class="fil8" d="M2422.12 426.7l24.07 -0.5 -0.01 -48.74c22.84,0 23.54,4.25 32.88,18.44 6.55,9.96 15.32,20.92 19.79,30.55l56.85 0.28 8.96 -26.59 47.61 -0.05 9.58 26.32 26.28 0.3 -46.9 -118.92 -26.16 -0.13 -45.1 117.19c-0.09,-0.22 -0.78,-1.45 -1.02,-1.06 -0.23,0.38 -1.06,-0.9 -1.37,-1.22 -11.72,-12.34 -20,-39.9 -37.58,-46.07 5.49,-4.85 6.51,-3.48 12.98,-6.59 4.17,-2.01 6.94,-4.42 9.93,-8.1 6.12,-7.53 8.16,-19.35 4.93,-30.92 -8.55,-30.6 -54.18,-23.24 -95.73,-23.24l0.01 119.04zm23.98 -68.8c16.92,0 47.33,5.24 48,-14.26 0.72,-20.94 -31.15,-15.4 -47.31,-15.4l-0.69 29.66zm126.52 21.4l30.47 0.23 -14.62 -41.63 -15.86 41.4z"/>
    <path class="fil9" d="M3061.27 306.71c-71.17,10.28 -62.23,133.91 22.15,121.21 32.84,-4.95 49.72,-33.82 45.32,-71.5 -3.93,-33.63 -29.51,-55.2 -67.47,-49.71zm-1.11 22.8c-38.94,16.13 -20.96,93.6 23.08,76.21 37,-14.61 23.82,-95.63 -23.08,-76.21z"/>
    <path class="fil10" d="M2164.4 425.43l22.56 1.21 0.07 -85.38c5.82,9.07 20.49,70.88 22.69,85.2l24.22 0.29 22.43 -83.46 0.51 82.14 22.51 1.22 -0.03 -118.06c-44.05,-3.44 -36.68,-0.18 -42.89,24.04 -3.61,14.1 -9.09,40.43 -14.25,52.85 -8.01,-17.49 -14.88,-54.91 -21.59,-76.88l-35.98 -0.25 -0.26 117.09z"/>
    <path class="fil11" d="M3058.11 152.46c-26.76,6.93 -41.28,31.25 -34.49,64.43 5.07,24.81 29.72,44.29 61.08,35.45 55.44,-15.62 39.1,-116.89 -26.59,-99.89zm2.04 12.15c-19.25,6.58 -28.25,23.83 -22.7,50.46 3.67,17.6 21.52,33.42 43.69,25.77 39,-13.45 25.58,-92.16 -20.99,-76.23z"/>
    <path class="fil12" d="M2811.98 151.97c-59.73,12.97 -45.34,115.96 22.16,101.14 58.06,-12.75 44.44,-115.6 -22.16,-101.14zm0.88 12.62c-22.47,6.9 -26.92,30.16 -23.18,49.52 3.56,18.39 20.28,33.38 42.73,27.18 38.38,-10.61 30.29,-92 -19.56,-76.7z"/>
    <path class="fil13" d="M2315.02 152.71c-58.9,14.57 -41.57,118.47 26.36,99.85 55.08,-15.1 41.58,-116.65 -26.36,-99.85zm2.17 12.29c-18.65,6.94 -27.93,23.5 -22.49,49.64 3.88,18.66 19.64,33.31 42.94,26.46 39.64,-11.65 27.19,-93.83 -20.45,-76.11z"/>
    <path class="fil14" d="M2925.52 252.48c50.64,2.74 82.74,2.66 82.78,-53.32 0.03,-47.48 -38.16,-51.76 -82.83,-46.05l0.04 99.38zm13.97 -12.84c32.1,3.16 54.74,1.38 54.81,-36.47l0.01 -2.01c0.07,-35.84 -21.58,-38.85 -54.81,-35.68l-0 74.16z"/>
    <path class="fil15" d="M2661.2 426.7l22.61 0 0.09 -74.49 35.72 56.27c2.16,3.53 3.96,7.01 5.95,10.13 6.68,10.51 6.4,8.14 29.58,7.58l-0.05 -117.25 -22.13 -0.7 -0.52 75.18c-5.3,-4.77 -19.47,-28.93 -23.74,-36.31 -7.16,-12.36 -15.53,-26.94 -23.8,-38.53l-23.02 -0.44 -0.68 118.57z"/>
    <path class="fil16" d="M2887.93 426.71c24.97,-0.01 26.56,5.73 34.74,-26.6l44.47 -0.01c9.58,4.95 6.14,20.77 16.07,26.61l23.07 0 -46.86 -118.92c-27.79,-0.14 -24.94,-2.95 -30.46,11.97l-17.44 44.83c-7.58,18.92 -18.25,42.96 -23.6,62.13zm42.87 -47.43l30.37 0.24 -14.43 -41.55 -15.94 41.31z"/>
    <path class="fil17" d="M2290.82 425.63l25.99 1.23 9.11 -26.7c61.29,-0.09 43.05,-4.23 54.61,19.85 3.91,8.14 -1.17,6.69 28.71,6.68l-46.88 -118.9 -26.05 -0.09 -45.49 117.93zm42.96 -46.33l30.46 0.23 -14.73 -41.81 -15.74 41.58z"/>
    <polygon class="fil18" points="2780.25,426.7 2804.41,426.7 2804.58,374.95 2849.9,374.94 2851.24,426.05 2875.19,426.8 2875.13,308.19 2851.52,308.34 2851.09,354.41 2804.37,354.41 2804.26,308.2 2780.77,308.2 "/>
    <path class="fil19" d="M2577.89 252.49l12.96 0.46 0.54 -44.28c40.73,0 31.33,7.72 58.08,44.21l15.97 -0.01c-4.49,-12.89 -21.61,-37.41 -33.02,-44.98 10.71,-5.19 18.76,-6.8 23.32,-16.71 4.92,-10.7 1.35,-24.42 -5.33,-30.95 -11.24,-10.98 -53.7,-9.53 -72.55,-7.12l0.04 99.39zm13.64 -55.82c19.46,-0 51.09,5.09 51.97,-15.72 0.97,-22.94 -32.92,-16.98 -52.12,-16.98l0.15 32.7z"/>
    <path class="fil20" d="M2677.79 245.37l0.4 7.52 12.74 -0.23 0.54 -74.89 51.49 74.75 13.94 0.06 0.25 -98.84 -13.03 -1.53 -0.48 76.62c-11.45,-12.84 -44.92,-70.96 -53.79,-76.37l-12.06 0 0 92.91z"/>
    <path class="fil21" d="M2264.7 240.18l0.14 -39.02 -42.26 0.71 -0.47 11.18 28.84 0.85c0.93,12.11 3.26,17.85 -7.52,23.06 -58.09,28.09 -76.99,-56.82 -35.74,-71.83 27.83,-10.12 36.44,7.32 44.11,18.49l11.36 -3.03c-15.55,-47.64 -83.97,-37.1 -90.6,13.46 -3.36,25.58 7.61,46.78 25.22,55.09 29.43,13.89 47.21,-0.2 66.93,-8.95z"/>
    <path class="fil22" d="M2484.89 245.37l0.4 7.52 73.94 -0.01 0.48 -12.5 -59.8 -0c-1.91,-11.64 -1.06,-20.76 -0.97,-33.19l54.73 0 0.01 -12.54 -54.26 0 -0.48 -29.66 58.75 0 0 -12.54 -72.82 0 0 92.91z"/>
    <path class="fil23" d="M2420.57 252.96l13.56 -0.07 39.34 -100.27c-19.83,-0.28 -12.15,-3.31 -29.42,41.86 -5.51,14.4 -10.35,30.47 -16.58,44.3l-30.95 -86.1 -14.34 -0.2 38.4 100.49z"/>
    <path class="fil24" d="M2916.92 301.63c19.7,-0.08 4.47,-3.06 16.54,-5.85 10.45,-2.41 38.53,22.11 39.71,-14.72 -21.9,-0.01 -2.83,2.82 -16.52,5.99 -10.17,2.35 -37.84,-23.27 -39.73,14.58z"/>
   </g>
  </g>
 </g>
</svg>
